<svg xmlns="http://www.w3.org/2000/svg" xmlns:xlink="http://www.w3.org/1999/xlink" fill="none" viewBox="0 0 313 192">
  <path stroke="url(#a)" stroke-dasharray="2 2" d="M16.5 18h282"/>
  <path stroke="url(#b)" stroke-dasharray="2 2" d="M16.5 44h282"/>
  <path stroke="url(#c)" stroke-dasharray="2 2" d="M16.5 70h282"/>
  <path stroke="url(#d)" stroke-dasharray="2 2" d="M16.5 96h282"/>
  <path stroke="url(#e)" stroke-dasharray="2 2" d="M16.5 122h282"/>
  <path stroke="url(#f)" stroke-dasharray="2 2" d="M16.5 148h282"/>
  <path stroke="#E5E5E8" d="M16.5 174h282"/>
  <path fill="url(#g)" fill-opacity=".15" d="M92.184 70.202C56.812 40.76 38.854 13.813 16 17.306V174h274.261s17.413-6.986 0-4.491c-17.414 2.495-70.198-25.451-89.788-46.909-38.384-34.433-72.919-22.955-108.29-52.398"/>
  <g filter="url(#h)">
    <path fill="url(#i)" d="M288 172.5h2.5v-5H288zm-110.976-65.293.972-2.304zM16 18v2.5c8.056 0 14.342 1.118 19.81 3.193 5.473 2.078 10.255 5.163 15.258 9.26 5.039 4.128 10.198 9.19 16.525 15.237 6.297 6.02 13.66 12.922 22.98 20.58l1.587-1.93 1.587-1.932c-9.176-7.541-16.433-14.343-22.7-20.332-6.235-5.96-11.582-11.208-16.81-15.49-5.266-4.312-10.514-7.737-16.652-10.067C31.442 16.687 24.536 15.5 16 15.5zm76.16 48.84-1.587 1.93c18.672 15.345 30.389 21.487 42.426 25.838 5.923 2.14 11.972 3.863 18.771 6.013 6.845 2.165 14.631 4.817 24.282 8.889l.972-2.303.972-2.304c-9.836-4.149-17.776-6.854-24.718-9.049-6.986-2.21-12.781-3.852-18.579-5.948-11.404-4.122-22.632-9.943-40.952-24.998zm84.864 40.367-.972 2.303c20.226 8.533 35.075 23.814 51.707 37.561C244.255 160.706 262.231 172.5 288 172.5v-5c-24.003 0-40.843-10.882-57.056-24.283-16.078-13.289-31.83-29.404-52.948-38.314z"/>
  </g>
  <g filter="url(#j)">
    <circle cx="291" cy="169" r="5" fill="#55D16F"/>
    <circle cx="291" cy="169" r="8" stroke="#fff" stroke-width="6"/>
  </g>
  <g filter="url(#k)">
    <circle cx="20" cy="17" r="5" fill="#F83E3E"/>
    <circle cx="20" cy="17" r="8" stroke="#fff" stroke-width="6"/>
  </g>
  <defs>
    <linearGradient id="a" x1="16.5" x2="298.5" y1="18" y2="18" gradientUnits="userSpaceOnUse">
      <stop offset=".003" stop-color="#BFC1C6" stop-opacity=".05"/>
      <stop offset=".499" stop-color="#BFC1C6"/>
      <stop offset="1" stop-color="#BFC1C6" stop-opacity=".05"/>
    </linearGradient>
    <linearGradient id="b" x1="16.5" x2="298.5" y1="44" y2="44" gradientUnits="userSpaceOnUse">
      <stop offset=".003" stop-color="#BFC1C6" stop-opacity=".05"/>
      <stop offset=".499" stop-color="#BFC1C6"/>
      <stop offset="1" stop-color="#BFC1C6" stop-opacity=".05"/>
    </linearGradient>
    <linearGradient id="c" x1="16.5" x2="298.5" y1="70" y2="70" gradientUnits="userSpaceOnUse">
      <stop offset=".003" stop-color="#BFC1C6" stop-opacity=".05"/>
      <stop offset=".499" stop-color="#BFC1C6"/>
      <stop offset="1" stop-color="#BFC1C6" stop-opacity=".05"/>
    </linearGradient>
    <linearGradient id="d" x1="16.5" x2="298.5" y1="96" y2="96" gradientUnits="userSpaceOnUse">
      <stop offset=".003" stop-color="#BFC1C6" stop-opacity=".05"/>
      <stop offset=".499" stop-color="#BFC1C6"/>
      <stop offset="1" stop-color="#BFC1C6" stop-opacity=".05"/>
    </linearGradient>
    <linearGradient id="e" x1="16.5" x2="298.5" y1="122" y2="122" gradientUnits="userSpaceOnUse">
      <stop offset=".003" stop-color="#BFC1C6" stop-opacity=".05"/>
      <stop offset=".499" stop-color="#BFC1C6"/>
      <stop offset="1" stop-color="#BFC1C6" stop-opacity=".05"/>
    </linearGradient>
    <linearGradient id="f" x1="16.5" x2="298.5" y1="148" y2="148" gradientUnits="userSpaceOnUse">
      <stop offset=".003" stop-color="#BFC1C6" stop-opacity=".05"/>
      <stop offset=".499" stop-color="#BFC1C6"/>
      <stop offset="1" stop-color="#BFC1C6" stop-opacity=".05"/>
    </linearGradient>
    <linearGradient id="g" x1="292.921" x2="9.04" y1="110.165" y2="77.517" gradientUnits="userSpaceOnUse">
      <stop stop-color="#8AF251"/>
      <stop offset=".516" stop-color="#F9E54F"/>
      <stop offset=".719" stop-color="#F7AC40"/>
      <stop offset="1" stop-color="#EA3524"/>
    </linearGradient>
    <linearGradient id="i" x1="287.483" x2="15.451" y1="131.624" y2="128.725" gradientUnits="userSpaceOnUse">
      <stop stop-color="#55D16F"/>
      <stop offset=".245" stop-color="#8AF251"/>
      <stop offset=".447" stop-color="#F9E54F"/>
      <stop offset=".73" stop-color="#F7AC40"/>
      <stop offset="1" stop-color="#EA3524"/>
    </linearGradient>
    <filter id="h" width="292.5" height="175" x="7" y="9.5" color-interpolation-filters="sRGB" filterUnits="userSpaceOnUse">
      <feFlood flood-opacity="0" result="BackgroundImageFix"/>
      <feColorMatrix in="SourceAlpha" result="hardAlpha" type="matrix" values="0 0 0 0 0 0 0 0 0 0 0 0 0 0 0 0 0 0 127 0"/>
      <feOffset dy="3"/>
      <feGaussianBlur stdDeviation="4.5"/>
      <feComposite in2="hardAlpha" operator="out"/>
      <feColorMatrix type="matrix" values="0 0 0 0 0.147603 0 0 0 0 0.15441 0 0 0 0 0.190147 0 0 0 0.14 0"/>
      <feBlend in2="BackgroundImageFix" mode="normal" result="effect1_dropShadow_174_47"/>
      <feBlend in="SourceGraphic" in2="effect1_dropShadow_174_47" mode="normal" result="shape"/>
    </filter>
    <filter id="j" width="40" height="40" x="271" y="152" color-interpolation-filters="sRGB" filterUnits="userSpaceOnUse">
      <feFlood flood-opacity="0" result="BackgroundImageFix"/>
      <feColorMatrix in="SourceAlpha" result="hardAlpha" type="matrix" values="0 0 0 0 0 0 0 0 0 0 0 0 0 0 0 0 0 0 127 0"/>
      <feOffset dy="3"/>
      <feGaussianBlur stdDeviation="4.5"/>
      <feComposite in2="hardAlpha" operator="out"/>
      <feColorMatrix type="matrix" values="0 0 0 0 0.147603 0 0 0 0 0.15441 0 0 0 0 0.190147 0 0 0 0.14 0"/>
      <feBlend in2="BackgroundImageFix" mode="normal" result="effect1_dropShadow_174_47"/>
      <feBlend in="SourceGraphic" in2="effect1_dropShadow_174_47" mode="normal" result="shape"/>
    </filter>
    <filter id="k" width="40" height="40" x="0" y="0" color-interpolation-filters="sRGB" filterUnits="userSpaceOnUse">
      <feFlood flood-opacity="0" result="BackgroundImageFix"/>
      <feColorMatrix in="SourceAlpha" result="hardAlpha" type="matrix" values="0 0 0 0 0 0 0 0 0 0 0 0 0 0 0 0 0 0 127 0"/>
      <feOffset dy="3"/>
      <feGaussianBlur stdDeviation="4.5"/>
      <feComposite in2="hardAlpha" operator="out"/>
      <feColorMatrix type="matrix" values="0 0 0 0 0.147603 0 0 0 0 0.15441 0 0 0 0 0.190147 0 0 0 0.14 0"/>
      <feBlend in2="BackgroundImageFix" mode="normal" result="effect1_dropShadow_174_47"/>
      <feBlend in="SourceGraphic" in2="effect1_dropShadow_174_47" mode="normal" result="shape"/>
    </filter>
  </defs>
</svg>
