<svg xmlns="http://www.w3.org/2000/svg" xmlns:xlink="http://www.w3.org/1999/xlink" fill="none" viewBox="0 0 69 27">
  <g clip-path="url(#a)">
    <mask id="b" width="69" height="27" x="0" y="0" maskUnits="userSpaceOnUse" style="mask-type:luminance">
      <path fill="#fff" d="M0 0h68.646v27H0z"/>
    </mask>
    <g mask="url(#b)">
      <path fill="#000" d="M30.07 0h6.311v1.249H33.95V7.79h-1.448V1.249h-2.42V0zm8.505 3.01h.036c.38-.596.937-.952 1.72-.952 1.198 0 1.922.737 1.922 1.95v3.795h-1.329V4.234c0-.654-.39-1.07-1.068-1.07-.735 0-1.257.57-1.257 1.356v3.27h-1.328V0h1.328v2.093c-.011.155-.011.583-.024.916m4.556 1.998c0-1.665 1.115-2.95 2.764-2.95.818 0 1.447.286 1.92.785.547.571.808 1.451.796 2.486h-4.164c.095.964.605 1.618 1.53 1.618.641 0 1.056-.274 1.234-.737h1.293c-.273.999-1.174 1.748-2.538 1.748-1.768 0-2.835-1.297-2.835-2.95m1.34-.511h2.776c-.048-.916-.546-1.475-1.352-1.475-.866-.012-1.305.595-1.424 1.475M30.497 9.515h1.436v3.129h3.44V9.515h1.447v7.791h-1.447v-3.45h-3.44v3.45h-1.436zm11.068 7.066h-.024c-.368.488-.866.856-1.756.856-1.091 0-1.897-.57-1.897-1.653 0-1.26.96-1.57 2.289-1.725.913-.119 1.376-.261 1.376-.76 0-.476-.332-.81-.996-.81-.736 0-1.104.345-1.14.904h-1.256c.047-.951.795-1.82 2.384-1.82.64 0 1.127.096 1.495.321.521.31.794.845.794 1.595v2.938c0 .464.083.701.214.784v.096h-1.293c-.095-.131-.166-.345-.19-.726m.024-1.308v-.833c-.261.167-.677.286-1.092.369-.818.155-1.28.321-1.28.94 0 .594.45.772.96.772.913.012 1.412-.618 1.412-1.248m3.748-2.558h.035c.356-.725.89-1.094 1.602-1.094.154 0 .26.012.356.048v1.19h-.048a1.3 1.3 0 0 0-.367-.048c-.878-.012-1.53.583-1.53 1.665v2.807h-1.33v-5.59h1.282zm2.396-1h1.388l.818 2.605c.238.75.475 1.88.475 1.88h.035s.214-1.118.463-1.88l.842-2.605h1.353l-1.97 5.59H49.69zm9.229 4.866h-.024c-.368.488-.866.856-1.756.856-1.09 0-1.897-.57-1.897-1.653 0-1.26.96-1.57 2.289-1.725.913-.119 1.376-.261 1.376-.76 0-.476-.332-.81-.997-.81-.735 0-1.103.345-1.138.904h-1.258c.048-.951.795-1.82 2.384-1.82.641 0 1.128.096 1.495.321.522.31.795.845.795 1.595v2.938c0 .464.083.701.213.784v.096h-1.28c-.108-.131-.179-.345-.202-.726m.023-1.308v-.833c-.26.167-.676.286-1.091.369-.818.155-1.281.321-1.281.94 0 .594.45.772.96.772.914.012 1.412-.618 1.412-1.248m3.749-2.558h.035c.356-.725.89-1.094 1.602-1.094.154 0 .26.012.356.048v1.19h-.048a1.3 1.3 0 0 0-.368-.048c-.877-.012-1.53.583-1.53 1.665v2.807h-1.328v-5.59h1.28zm2.408 1.808c0-1.784.996-2.95 2.42-2.95.77 0 1.352.369 1.708.952h.024q-.045-.582-.048-1.166V9.515h1.329v7.791h-1.281v-.82h-.024c-.344.653-.949.999-1.708.999-1.471 0-2.42-1.143-2.42-2.962m4.163 0c0-1.118-.486-1.915-1.47-1.915-.902 0-1.353.808-1.353 1.903 0 1.118.451 1.88 1.353 1.88.984 0 1.47-.774 1.47-1.868M36.203 25.752h-.047c-.498.844-1.34 1.248-2.302 1.248-1.091 0-2.004-.416-2.645-1.105-.664-.726-1.02-1.737-1.02-2.926 0-1.261.415-2.356 1.174-3.093.63-.619 1.483-.987 2.587-.987 1.897 0 3 1.01 3.285 2.486h-1.459c-.214-.726-.77-1.261-1.803-1.261-1.578 0-2.313 1.249-2.313 2.855 0 1.665.913 2.83 2.313 2.83 1.305 0 1.993-.892 2.005-1.88v-.094h-1.875v-1.13h3.263v4.139h-.973zm5.765.344h-.023c-.368.488-.867.857-1.756.857-1.092 0-1.898-.571-1.898-1.654 0-1.26.96-1.57 2.29-1.724.913-.12 1.375-.262 1.375-.762 0-.475-.332-.808-.996-.808-.735 0-1.104.345-1.139.904h-1.257c.047-.952.795-1.82 2.384-1.82.64 0 1.127.095 1.495.32.522.31.794.845.794 1.595v2.938c0 .464.083.701.214.785v.095H42.17c-.107-.13-.19-.345-.202-.726m.012-1.308v-.833c-.26.167-.676.286-1.091.369-.819.155-1.281.321-1.281.94 0 .594.45.773.96.773.914.012 1.412-.619 1.412-1.249m2.277 1.022 2.218-2.735c.285-.321.807-.82.807-.82v-.037s-.7.06-1.127.06H44.46v-1.07h4.377v.916l-2.206 2.735c-.309.357-.89.892-.89.892v.036s.748-.048 1.21-.048h2.028v1.094h-4.72zm5.244-1.772c0-1.665 1.114-2.95 2.763-2.95.819 0 1.448.286 1.922.786.545.57.807 1.451.795 2.486h-4.164c.095.963.605 1.617 1.53 1.617.641 0 1.056-.273 1.234-.737h1.293c-.273.999-1.174 1.748-2.539 1.748-1.767 0-2.834-1.296-2.834-2.95m1.34-.51h2.776c-.048-.916-.546-1.476-1.353-1.476-.866-.012-1.316.595-1.423 1.475m4.626-2.296h.854v-1.785h1.305v1.785h1.115v.915h-1.115v3.129c0 .404.213.523.593.523.13 0 .32-.024.427-.048h.06v1.035a4.2 4.2 0 0 1-.878.084c-.902 0-1.519-.322-1.519-1.309v-3.426h-.854v-.903zm3.772 0h.854v-1.785h1.305v1.785h1.115v.915h-1.115v3.129c0 .404.214.523.593.523.13 0 .32-.024.427-.048h.06v1.035a4.2 4.2 0 0 1-.878.084c-.902 0-1.519-.322-1.519-1.309v-3.426h-.854v-.903zm3.927 2.806c0-1.665 1.114-2.95 2.763-2.95.819 0 1.448.286 1.922.786.546.57.807 1.451.795 2.486h-4.164c.095.963.605 1.617 1.53 1.617.64 0 1.056-.273 1.234-.737h1.293c-.273.999-1.174 1.748-2.538 1.748-1.768 0-2.836-1.296-2.836-2.95m1.34-.51h2.775c-.047-.916-.545-1.476-1.352-1.476-.866-.012-1.316.595-1.423 1.475"/>
      <path fill="#A51C30" d="M25.373 1.427v24.015H1.423V1.427zM26.796 0H0v26.87h26.796z"/>
    </g>
  </g>
  <defs>
    <clipPath id="a">
      <path fill="#fff" d="M0 0h69v27H0z"/>
    </clipPath>
  </defs>
</svg>
