<svg xmlns="http://www.w3.org/2000/svg" xmlns:xlink="http://www.w3.org/1999/xlink" fill="none" viewBox="0 0 42 72">
  <path fill="url(#a)" fill-rule="evenodd" d="M27.28 2.044c-1.769-.426-3.79.546-5.044 2.589-1.403 2.286-1.308 4.995-1.073 6.287a25 25 0 0 0-2.415 2.212c.57-1.161.88-3.017.63-4.907-.3-2.259-1.664-4.291-2.404-4.908-1.249.78-1.941 2.733-1.642 4.992.375 2.842 2.129 4.906 2.81 5.477a27 27 0 0 0-3.3 4.588 11.5 11.5 0 0 0-.337-3.996c-.64-2.411-2.368-4.387-3.234-4.93-1.198 1.073-1.642 3.325-1.001 5.736.729 2.745 2.55 4.596 3.481 5.296a30.5 30.5 0 0 0-2.074 6.06c.007-1.373-.265-3.006-.868-4.553-.981-2.517-3.047-4.392-4.025-4.845-1.12 1.351-1.298 3.866-.317 6.383 1.295 3.322 3.975 5.11 4.75 5.414a35.2 35.2 0 0 0-.287 8.01 13.2 13.2 0 0 0-2.13-4.341c-1.614-2.148-4.03-3.281-5.048-3.388-.631 1.73-.072 4.28 1.541 6.429 2.157 2.873 5.156 3.69 5.9 3.698a38.6 38.6 0 0 0 1.474 6.386 12.8 12.8 0 0 0-2.249-2.568C8.43 41.446 5.911 40.96 4.93 41.127c-.212 1.902.875 4.306 2.864 6.025 2.507 2.167 5.316 2.301 6.215 2.149a40 40 0 0 0 2.058 4.097 12 12 0 0 0-1.721-1.336c-2.174-1.376-4.679-1.414-5.602-1.07.074 1.954 1.477 4.182 3.65 5.558 2.88 1.822 5.751 1.325 6.436 1.005a38 38 0 0 0 3.185 3.68 10.5 10.5 0 0 0-2.5-1.039c-2.366-.627-4.665.184-5.413.838.61 1.913 2.511 3.647 4.879 4.274 3.175.842 5.681-.672 6.175-1.204l-.024-.042c4.937 3.983 10.648 6.436 16.44 7.044l-.022-.693c-5.513-.579-10.953-2.866-15.693-6.579 1.047-.548 2.827-1.961 3.578-4.519.703-2.395.239-4.956-1.044-6.481-.935.314-2.805 1.903-3.509 4.298-.584 1.99-.54 4.228-.094 5.831l-.335-.289a37 37 0 0 1-4.863-5.136c1.183-.137 3.37-.816 4.84-2.919 1.362-1.949 1.613-4.445.764-6.274-1.014-.03-3.31.788-4.673 2.737-1.163 1.662-1.74 3.786-1.712 5.42a38.8 38.8 0 0 1-4.102-7.124c1.154.118 3.6-.08 5.48-1.939 1.659-1.639 2.278-4.007 1.691-5.926-1.018-.21-3.451.169-5.11 1.808-1.426 1.408-2.322 3.374-2.525 4.963a39 39 0 0 1-.882-2.394 38 38 0 0 1-1.5-6.258c1.182.407 3.576.798 5.783-.396 2.023-1.094 3.164-3.152 2.999-5.112-.974-.471-3.494-.77-5.517.325-1.593.861-2.844 2.283-3.467 3.622a34.7 34.7 0 0 1 .138-8.647c1.04.783 3.318 2.005 5.87 1.688 2.316-.288 4.036-1.76 4.434-3.6-.828-.767-3.238-1.92-5.554-1.633-1.85.23-3.517 1.106-4.513 2.124q.162-.855.37-1.695a30 30 0 0 1 1.882-5.377c.636.741 2.85 2.577 5.621 2.642 2.2.052 3.973-1.047 4.549-2.66-.69-.806-2.82-2.175-5.02-2.227-2.012-.048-3.894.704-4.875 1.669a26.7 26.7 0 0 1 4.02-6.008c.697.884 2.407 2.509 4.705 2.935 2.043.378 3.83-.34 4.567-1.7-.544-.827-2.358-2.376-4.402-2.754-1.308-.243-2.605-.124-3.62.215a25 25 0 0 1 1.765-1.56c1.482-.188 3.455-1.515 4.692-3.532 1.253-2.043 1.299-4.799.992-5.907" clip-rule="evenodd"/>
  <defs>
    <linearGradient id="a" x1="11.5" x2="36.5" y1="-5" y2="78.501" gradientUnits="userSpaceOnUse">
      <stop offset=".206" stop-color="#FBDBB9"/>
      <stop offset=".841" stop-color="#DEB393"/>
    </linearGradient>
  </defs>
</svg>
